<svg width="131" height="16" viewBox="0 0 131 16" fill="none" xmlns="http://www.w3.org/2000/svg">
<path fill-rule="evenodd" clip-rule="evenodd" d="M6.09936 4.33121C3.13279 4.77339 1.36549 5.17131 1.08146 5.61349C0.387154 6.58628 1.77572 7.07285 6.16247 7.11707C6.19403 7.11707 120.092 3.49111 120.123 3.49111C125.267 3.18159 125.678 2.78371 125.678 2.03201C125.678 1.05921 124.289 0.395772 121.323 0.0862465C117.409 -0.400151 28.0331 1.19174 6.09936 4.33121ZM122.048 6.54211C120.66 6.63054 30.2739 9.54888 28.0016 9.81419C0.166255 12.6884 -1.97978 13.1307 1.01836 15.2531C2.47009 16.2701 5.21575 16.27 17.1136 15.1203C45.8011 12.423 127.477 12.1137 130.348 10.6545C131.674 9.94702 131.863 6.05571 122.048 6.54211Z" fill="#BFD838"/>
</svg>
