<svg width="15" height="18" viewBox="0 0 15 18" fill="none" xmlns="http://www.w3.org/2000/svg">
<path d="M12.7167 13.4513C14.2996 12.99 13.9842 10.1513 13.9572 8.6005C13.9494 8.15751 13.9483 7.71438 13.9373 7.27137C13.9238 6.72911 13.9015 6.1874 13.8776 5.64581C13.8463 4.93593 13.7993 4.24298 13.7125 3.54031C13.6694 3.19191 13.6218 2.83455 13.504 2.51324C12.9354 0.962339 11.521 1.09702 10.4076 1.04899C9.27356 1.00015 8.13723 0.983114 7.00256 1.01968C6.27372 1.04329 5.54626 1.00109 4.89865 1.44356C4.09633 1.99183 4.0076 3.17058 3.96297 4.23498C3.87001 6.45103 3.82653 8.81261 4.06459 11.016C4.19155 12.1914 4.49475 13.2967 5.4971 13.566C6.59559 13.8611 7.74365 13.7613 8.84432 13.6808C9.80957 13.6102 11.7512 13.538 12.7167 13.4513Z" stroke="#2D2D2D" stroke-width="1.2" stroke-miterlimit="1.5" stroke-linecap="round" stroke-linejoin="round"/>
<path d="M9.82806 16.9381C11.4109 16.4768 11.0955 13.6381 11.0685 12.0873C11.0608 11.6443 11.0596 11.2012 11.0486 10.7582C11.0351 10.2159 11.0128 9.67422 10.9889 9.13263C10.9576 8.42274 10.9106 7.7298 10.8238 7.02713C10.7807 6.67873 10.7331 6.32137 10.6153 6.00006C10.0468 4.44916 8.63238 4.58384 7.51894 4.5358C6.38489 4.48696 5.24856 4.46993 4.11388 4.50649C3.38505 4.53011 2.65759 4.4879 2.00998 4.93038C1.20766 5.47864 1.11892 6.6574 1.0743 7.7218C0.981343 9.93785 0.937858 12.2994 1.17592 14.5028C1.30288 15.6782 1.60608 16.7835 2.60843 17.0528C3.70692 17.3479 4.85498 17.2482 5.95565 17.1676C6.9209 17.097 8.86252 17.0248 9.82806 16.9381Z" fill="white" stroke="#2D2D2D" stroke-width="1.2" stroke-miterlimit="1.5" stroke-linecap="round" stroke-linejoin="round"/>
</svg>
