<svg width="44" height="44" viewBox="0 0 44 44" fill="none" xmlns="http://www.w3.org/2000/svg">
<path d="M37.4245 41.2018C43.8769 39.7495 42.591 30.812 42.481 25.9295C42.4494 24.5348 42.4448 23.1397 42.3998 21.7449C42.3448 20.0376 42.2541 18.3321 42.1566 16.6269C42.0289 14.3919 41.8373 12.2103 41.4836 9.99796C41.308 8.90105 41.1139 7.77593 40.6338 6.76431C38.316 1.88143 32.5504 2.30546 28.0116 2.15423C23.3888 2.00047 18.7567 1.94683 14.1314 2.06195C11.1604 2.1363 8.19493 2.00343 5.55503 3.39651C2.28448 5.12269 1.92277 8.83389 1.74086 12.1851C1.36194 19.1621 1.18467 26.5973 2.15511 33.5345C2.67264 37.2352 3.90858 40.7151 7.99454 41.5628C12.4724 42.4921 17.1524 42.178 21.6391 41.9243C25.5738 41.702 33.4886 41.4749 37.4245 41.2018Z" stroke="#2D2D2D" stroke-width="2.41583" stroke-miterlimit="1.5" stroke-linecap="round" stroke-linejoin="round"/>
<path d="M22.8089 41.8725C22.4274 33.8514 20.4294 24.9663 21.9006 17.0112C22.8849 11.6885 27.8871 9.73879 32.6213 12.7055" stroke="#2D2D2D" stroke-width="2.41583" stroke-miterlimit="1.5" stroke-linecap="round" stroke-linejoin="round"/>
<path d="M16.3145 22.8007C20.3987 22.7033 24.4792 22.5538 28.561 22.3962" stroke="#2D2D2D" stroke-width="2.41583" stroke-miterlimit="1.5" stroke-linecap="round" stroke-linejoin="round"/>
</svg>
