<svg width="40" height="38" viewBox="0 0 40 38" fill="none" xmlns="http://www.w3.org/2000/svg">
<path d="M12.7604 6.64236C14.1591 6.97067 14.9918 7.9933 15.2421 9.70486C15.4544 11.1473 14.834 12.326 13.37 13.2356C12.0584 14.0537 10.6978 13.8492 9.28825 12.6274C8.37394 11.8416 7.98753 10.8997 8.12903 9.80174C8.17257 9.09666 8.42292 8.45079 8.87463 7.85336C9.80527 6.6585 11.1005 6.25483 12.7496 6.64236H12.7604ZM11.3999 11.7555C12.1781 11.8416 12.7768 11.6102 13.2013 11.0504C13.8979 10.2377 13.7945 9.48418 12.8965 8.79526C12.2706 8.31624 11.6557 8.18168 11.0624 8.39159C10.3114 8.65532 9.93588 9.13972 9.94133 9.83941C9.94133 10.862 10.4257 11.5025 11.4053 11.7555H11.3999Z" fill="#2D2D2D"/>
<path d="M13.577 16.0612C14.4097 16.7448 14.8288 17.762 14.8342 19.1237C14.8505 22.1862 14.8396 25.0442 14.8015 27.7031C14.6818 28.2897 14.4369 28.758 14.0505 29.1186C13.1961 30.2058 12.0967 30.5987 10.7525 30.2973C9.11432 29.9474 8.24899 29.1401 8.16735 27.8753C7.94422 24.5114 7.94422 21.1475 8.16735 17.7836C8.23266 16.7663 8.96193 16.0074 10.3443 15.4961C11.5089 15.0655 12.5865 15.2593 13.577 16.0666V16.0612ZM12.826 27.6331C13.0654 27.1002 13.1471 26.4598 13.0654 25.717C13.0818 23.1335 13.0709 20.7223 13.0328 18.4833C13.0165 17.4714 12.4396 17.0085 11.2967 17.1054C10.3878 17.1808 9.93611 17.5844 9.93611 18.3164C9.93611 21.3197 9.93611 24.3284 9.93611 27.3317C9.93611 28.0852 10.3878 28.4889 11.2967 28.5427C11.9715 28.618 12.4831 28.3166 12.826 27.6331Z" fill="#2D2D2D"/>
<path d="M28.6795 16.5997C30.8674 18.2629 31.9667 20.4481 31.9776 23.1607C32.032 24.9853 31.9885 26.5569 31.8415 27.8702C31.7 29.3395 30.7367 30.1792 28.9517 30.3945C27.9394 30.486 27.123 30.2384 26.5026 29.6517C25.6591 29.1027 25.2182 28.2362 25.1747 27.0628C25.191 25.5128 25.1801 24.0865 25.142 22.7893C25.1148 21.7452 24.5924 21.6106 23.5746 22.3857C23.3189 22.5794 23.2644 23.8227 23.4059 26.121C23.5148 27.924 22.8726 29.2588 21.4685 30.1253C20.5324 30.7012 19.4222 30.6151 18.1323 29.8562C17.1092 29.2534 16.603 28.3277 16.603 27.0628C16.603 25.6258 16.603 24.1941 16.603 22.757C16.603 21.1639 17.0656 19.7376 17.9963 18.4835C19.4167 16.6374 21.131 15.5933 23.1338 15.3564C25.0386 15.0443 26.889 15.4587 28.6795 16.5997ZM27.5911 28.3061C28.4346 28.7744 29.2074 28.6614 29.9041 27.9671C30.0945 26.8045 30.149 25.4697 30.0728 23.9627C29.9422 21.7021 29.5449 20.1682 28.8809 19.3555C27.4986 17.6439 25.6754 16.8958 23.4059 17.1003C21.1583 17.5955 19.6181 18.8495 18.78 20.8679C18.4806 22.3372 18.3881 24.038 18.5078 25.981C18.6058 27.4073 18.7419 28.1716 18.916 28.2685C19.8739 28.8121 20.5923 28.8013 21.0603 28.2362C21.3923 27.8379 21.5392 27.1759 21.5011 26.2501C21.4086 24.0542 21.4576 22.7086 21.6372 22.2134C22.078 21.0078 22.8073 20.335 23.8141 20.1951C24.5325 20.0982 25.1094 20.2005 25.5502 20.4965C26.5516 21.18 27.0196 22.2888 26.9434 23.8281C26.8564 25.728 26.8999 26.9875 27.0795 27.5957C27.2047 27.9617 27.3734 28.1931 27.5911 28.3008V28.3061Z" fill="#2D2D2D"/>
<path d="M33.4301 35.6417C39.0655 34.3768 37.9425 26.593 37.8464 22.3407C37.8188 21.126 37.8148 19.911 37.7755 18.6962C37.7274 17.2093 37.6482 15.724 37.5631 14.2389C37.4515 12.2924 37.2842 10.3923 36.9753 8.46559C36.8219 7.51027 36.6524 6.53038 36.233 5.64933C34.2087 1.39673 29.1732 1.76604 25.2091 1.63433C21.1715 1.50041 17.1259 1.4537 13.0862 1.55395C10.4914 1.6187 7.90142 1.50298 5.59577 2.71625C2.73931 4.21961 2.4234 7.45177 2.26452 10.3704C1.93358 16.4468 1.77876 22.9223 2.62633 28.9641C3.07833 32.1871 4.15778 35.2178 7.7264 35.9561C11.6373 36.7654 15.7247 36.4918 19.6434 36.2709C23.0799 36.0773 29.9925 35.8795 33.4301 35.6417Z" stroke="#2D2D2D" stroke-width="2.14791" stroke-miterlimit="1.5" stroke-linecap="round" stroke-linejoin="round"/>
</svg>
