<svg width="45" height="45" viewBox="0 0 45 45" fill="none" xmlns="http://www.w3.org/2000/svg">
<path fill-rule="evenodd" clip-rule="evenodd" d="M12.5532 34.4063C12.986 34.2665 16.5374 30.6943 22.2622 24.6137C24.4224 22.3279 27.9908 18.6548 30.2074 16.4591C36.091 10.6383 34.5905 8.32946 28.6625 14.2574C19.7032 23.2167 11.2881 32.7202 11.5269 33.6326C11.6681 34.1612 12.1561 34.5313 12.5532 34.4063Z" fill="#BFD838"/>
<path fill-rule="evenodd" clip-rule="evenodd" d="M34.6993 33.1953C34.5595 32.7625 30.9872 29.2111 24.9066 23.4864C22.6209 21.3262 18.9478 17.7577 16.7521 15.5411C10.9313 9.65754 8.62243 11.158 14.5504 17.086C23.5097 26.0453 33.0132 34.4604 33.9256 34.2216C34.4541 34.0804 34.8243 33.5924 34.6993 33.1953Z" fill="#BFD838"/>
<path fill-rule="evenodd" clip-rule="evenodd" d="M10.5872 34.4426C10.9712 34.254 14.526 30.6852 20.3101 24.6639C22.4912 22.3991 26.0771 18.7434 28.2902 16.5442C34.1633 10.713 33.2977 9.03901 27.3698 14.967C18.4104 23.9263 9.81397 33.2484 9.86088 33.9689C9.89047 34.3858 10.2355 34.6129 10.5872 34.4426Z" fill="#2D2D2D"/>
<path fill-rule="evenodd" clip-rule="evenodd" d="M32.7333 33.1639C32.5446 32.7799 28.9758 29.2251 22.9546 23.441C20.6897 21.2599 17.034 17.674 14.8349 15.4609C9.00362 9.58776 7.32966 10.4534 13.2576 16.3813C22.2169 25.3407 31.539 33.9371 32.2596 33.8902C32.6765 33.8606 32.9036 33.5156 32.7333 33.1639Z" fill="#2D2D2D"/>
</svg>
