<svg width="45" height="45" viewBox="0 0 45 45" fill="none" xmlns="http://www.w3.org/2000/svg">
<path fill-rule="evenodd" clip-rule="evenodd" d="M6.35102 16.8086C6.76856 17.0848 11.9631 17.0651 20.5717 16.7296C23.8137 16.6112 29.0942 16.5126 32.3117 16.5323C40.8466 16.5915 41.436 13 32.7906 13C19.7243 13 6.65803 14.0261 6.16682 15.1115C5.88437 15.743 5.97033 16.552 6.35102 16.8086Z" fill="#BFD838"/>
<path fill-rule="evenodd" clip-rule="evenodd" d="M6.26593 24.8086C6.58224 25.0848 10.5175 25.0651 17.0391 24.7296C19.4952 24.6112 23.4956 24.5126 25.9331 24.5323C32.3989 24.5915 32.8455 21 26.2959 21C16.3972 21 6.49851 22.0261 6.12638 23.1115C5.9124 23.743 5.97752 24.552 6.26593 24.8086Z" fill="#BFD838"/>
<path fill-rule="evenodd" clip-rule="evenodd" d="M6.35102 32.8086C6.76856 33.0848 11.9631 33.0651 20.5717 32.7296C23.8137 32.6112 29.0942 32.5126 32.3117 32.5323C40.8466 32.5915 41.436 29 32.7906 29C19.7243 29 6.65803 30.0261 6.16682 31.1115C5.88437 31.743 5.97033 32.552 6.35102 32.8086Z" fill="#BFD838"/>
<path fill-rule="evenodd" clip-rule="evenodd" d="M6.34039 14.9043C6.74527 15.0424 11.7824 15.0326 20.1301 14.8648C23.2739 14.8056 28.3944 14.7563 31.5144 14.7662C39.7906 14.7958 40.3622 13 31.9788 13C19.3084 13 6.63809 13.5131 6.16176 14.0557C5.88787 14.3715 5.97123 14.776 6.34039 14.9043Z" fill="#2D2D2D"/>
<path fill-rule="evenodd" clip-rule="evenodd" d="M6.25529 22.9043C6.55895 23.0424 10.3368 23.0326 16.5976 22.8648C18.9554 22.8056 22.7958 22.7563 25.1358 22.7662C31.343 22.7958 31.7717 21 25.4841 21C15.9813 21 6.47857 21.5131 6.12132 22.0557C5.9159 22.3715 5.97842 22.776 6.25529 22.9043Z" fill="#2D2D2D"/>
<path fill-rule="evenodd" clip-rule="evenodd" d="M6.34039 30.9043C6.74527 31.0424 11.7824 31.0326 20.1301 30.8648C23.2739 30.8056 28.3944 30.7563 31.5144 30.7662C39.7906 30.7958 40.3622 29 31.9788 29C19.3084 29 6.63809 29.5131 6.16176 30.0557C5.88787 30.3715 5.97123 30.776 6.34039 30.9043Z" fill="#2D2D2D"/>
</svg>
