<svg fill="none" xmlns="http://www.w3.org/2000/svg">
    <path fill-rule="evenodd" clip-rule="evenodd" d="M2.04685 1.33982C2.17401 1.52483 2.87434 2.47393 4.4805 3.74671C5.87095 5.12212 7.60922 6.34493 7.60922 6.49753C7.60922 6.65014 6.78222 7.28787 5.17565 8.56065C2.12052 10.9812 1.56795 12.136 2.32638 11.9873C3.0737 11.8411 9 6.96601 9 6.49762C9 6.02923 3.0737 1.15414 2.32638 1.00797C2.07206 0.958101 1.91722 1.15114 2.04685 1.33982Z" fill="#2D2D2D" />
    <path fill-rule="evenodd" clip-rule="evenodd" d="M7.04685 1.33982C7.17401 1.52483 7.87434 2.47393 9.4805 3.74671C10.871 5.12212 12.6092 6.34493 12.6092 6.49753C12.6092 6.65014 11.7822 7.28787 10.1756 8.56065C7.12052 10.9812 6.56795 12.136 7.32638 11.9873C8.0737 11.8411 14 6.96601 14 6.49762C14 6.02923 8.0737 1.15414 7.32638 1.00797C7.07206 0.958101 6.91722 1.15114 7.04685 1.33982Z" fill="#2D2D2D" />
</svg>