<svg width="14" height="16" viewBox="0 0 14 16" fill="none" xmlns="http://www.w3.org/2000/svg">
<path fill-rule="evenodd" clip-rule="evenodd" d="M1.78078 0.193479C1.13512 0.430683 1.15526 0.409113 1.04429 0.926652C0.852608 1.78921 1.1351 9.33666 1.40749 10.8461C1.47811 11.2128 1.90182 11.3205 2.86022 11.2235C3.33439 11.1804 3.91954 11.1804 4.16167 11.2235C4.78714 11.3422 4.95866 11.2666 5.02927 10.7922C5.12003 10.1453 6.3206 4.63569 6.54258 2.51162C6.58288 2.1019 6.43159 1.69217 6.139 1.42262C6.139 1.42262 3.99015 -0.625957 1.78078 0.193479ZM4.76699 1.35793C4.95866 1.41184 4.99904 1.48732 4.94859 1.70296C4.91828 1.85391 3.63703 9.08865 3.51596 9.83267C3.45545 10.2424 3.44538 10.2424 3.03175 10.21L2.60801 10.1777C2.46677 6.88916 2.3962 4.54942 2.09354 1.96172C2.05319 1.63826 2.26502 1.34715 2.56767 1.29324C3.29404 1.17464 4.08098 1.15307 4.76699 1.35793ZM8.41899 3.46043C8.14664 3.61138 8.10634 3.72999 7.74314 5.48744C6.94615 9.35819 6.79478 10.4904 7.01676 10.7922C7.32949 11.2128 8.98402 11.7626 9.79109 11.7195C10.1442 11.6979 10.467 11.4715 10.6284 11.1373C11.728 8.77604 12.3939 7.38509 12.9488 5.78937C13.0698 5.44437 12.9791 5.05621 12.7168 4.81897C11.5868 3.75154 9.21599 3.00759 8.41899 3.46043ZM10.5477 4.56021C11.5868 4.98074 11.7483 5.07774 11.6474 5.20713C11.5767 5.30421 9.38751 10.6198 9.27652 10.7383C9.15546 10.8785 8.32824 10.6089 8.39884 10.458C8.51991 10.1992 8.96379 8.16141 9.32698 6.10207C9.52873 4.94836 9.69017 4.29066 9.77086 4.29066C9.85162 4.30145 10.1946 4.42005 10.5477 4.56021ZM1.50837 12.2262C-1.19536 13.2506 -0.0250853 16 3.12254 16C4.99904 16 6.03817 15.2991 5.97763 14.4797C5.90703 13.5848 3.16289 11.6009 1.50837 12.2262ZM7.63216 13.0026C5.65474 14.0484 6.67372 15.8921 9.22607 15.8921C10.8201 15.8921 12.061 14.8031 11.4859 13.919C10.9815 13.1643 8.46945 12.5605 7.63216 13.0026ZM4.08098 13.5633C4.91828 14.1994 4.77707 14.5875 3.55634 14.9864C2.25496 15.407 1.21582 15.0511 1.21582 14.3611C1.20573 14.0377 2.37599 12.2694 4.08098 13.5633ZM9.56911 13.7034C10.7999 14.4581 10.0231 15.5687 8.61067 15.0728C7.90451 14.8247 7.74306 14.318 8.17687 13.725C8.49976 13.2506 8.82257 13.2506 9.56911 13.7034Z" fill="#F37272"/>
</svg>
