<svg width="18" height="16" viewBox="0 0 18 16" fill="none" xmlns="http://www.w3.org/2000/svg">
<path fill-rule="evenodd" clip-rule="evenodd" d="M16.0585 0.581239C15.0306 1.2854 14.5214 1.70018 13.2533 2.86734C12.1677 3.86089 12.1869 3.85124 11.8795 3.53292C11.2455 2.84806 8.92058 2.23071 8.25771 2.58761C7.94064 2.75159 7.97914 3.07956 8.31537 3.07956C9.22797 3.0892 10.0734 3.51363 10.7939 4.12132C11.4376 4.67115 11.4376 4.6422 10.525 5.5489C9.54503 6.51349 8.15205 8.10509 7.37385 9.1372L6.77822 9.92819L6.27867 9.18548C5.09703 7.41057 3.81933 6.53282 3.03157 6.94756C2.74336 7.10192 2.7914 7.19839 3.65601 8.11479C4.41496 8.9154 5.20271 10.0536 5.75992 11.1629C6.21143 12.06 7.32585 12.06 8.0848 10.7674C8.63243 9.83172 10.0446 8.04727 11.207 6.83184L12.2446 5.74183L12.4943 6.30131C14.7232 11.3076 9.28563 17.1048 4.71277 14.5969C0.0438255 12.0311 1.10058 3.803 6.19226 3.06991C7.19136 2.92522 7.21053 2.5876 6.22101 2.46221C3.66559 2.11495 0.399285 5.15341 0.0534335 8.18231C-0.599838 13.9603 5.07785 17.7222 10.6306 15.2045C14.0026 13.6805 15.5781 8.20155 13.4934 5.30777C13.3398 5.09559 13.2149 4.89303 13.2149 4.84476C13.2149 4.64221 14.9345 3.09884 16.7598 1.69053C18.8156 0.098942 17.7493 -0.576283 16.0585 0.581239Z" fill="#18A80C"/>
</svg>
