<svg width="44" height="44" viewBox="0 0 44 44" fill="none" xmlns="http://www.w3.org/2000/svg">
<path d="M12.9582 31.3553C18.7305 33.0614 25.4747 30.7619 28.6588 25.6323C29.0611 24.984 29.4141 24.2831 29.7079 23.5794C30.596 21.4526 30.9258 17.9027 29.5511 15.8564C30.1747 14.8857 30.5599 13.4204 30.2256 12.2897C30.1929 12.1795 30.1298 12.4989 30.0757 12.6002C29.9675 12.8024 29.835 12.9908 29.7077 13.1812C29.3207 13.7597 28.8488 14.2686 28.3202 14.7199C28.0537 14.5756 27.7588 14.4625 27.4335 14.3861C26.8392 14.2463 26.2541 14.1647 25.6432 14.2349C22.3499 14.6128 21.389 17.4604 20.2568 20.0445C19.493 19.6694 18.7282 19.2998 17.9983 18.8642C17.2026 18.3892 16.4129 17.9039 15.6076 17.445C15.126 17.1708 14.6407 16.8537 14.0674 16.8462C12.4676 16.8249 12.1335 18.8413 13.1158 19.817C11.6463 20.3396 11.8065 22.6329 13.2653 23.0713C12.5524 24.5065 13.7357 26.2538 15.3414 25.4943C15.2364 26.5014 15.9278 27.4744 17.0141 27.384C15.9823 29.0831 15.0626 30.9132 12.9582 31.3553Z" stroke="#2D2D2D" stroke-width="1.5" stroke-miterlimit="1.5" stroke-linecap="round" stroke-linejoin="round"/>
<path d="M32.2025 14.7195C31.5006 15.2674 30.7152 15.7412 29.9175 16.1368" stroke="#2D2D2D" stroke-width="1.5" stroke-miterlimit="1.5" stroke-linecap="round" stroke-linejoin="round"/>
<path d="M37.2053 41.2018C43.6577 39.7495 42.3718 30.812 42.2617 25.9295C42.2302 24.5348 42.2256 23.1397 42.1806 21.7449C42.1255 20.0376 42.0349 18.3321 41.9374 16.6269C41.8097 14.3919 41.6181 12.2103 41.2643 9.99796C41.0888 8.90105 40.8947 7.77593 40.4145 6.76431C38.0968 1.88143 32.3312 2.30546 27.7924 2.15423C23.1696 2.00047 18.5375 1.94683 13.9121 2.06195C10.9411 2.1363 7.9757 2.00343 5.3358 3.39651C2.06524 5.12269 1.70353 8.83389 1.52162 12.1851C1.1427 19.1621 0.965435 26.5973 1.93587 33.5345C2.45341 37.2352 3.68935 40.7151 7.7753 41.5628C12.2532 42.4921 16.9331 42.178 21.4199 41.9243C25.3546 41.702 33.2693 41.4749 37.2053 41.2018Z" stroke="#2D2D2D" stroke-width="2.41583" stroke-miterlimit="1.5" stroke-linecap="round" stroke-linejoin="round"/>
</svg>
