<svg width="87" height="36" viewBox="0 0 87 36" fill="none" xmlns="http://www.w3.org/2000/svg">
    <path fill-rule="evenodd" clip-rule="evenodd" d="M86.966 23.0428C86.6109 20.8029 83.5605 19.8598 74.3932 19.0739C65.8393 18.3273 55.8811 16.166 38.4827 17.3449C25.1837 18.2487 8.62452 21.864 8.62452 23.8681C8.62452 25.322 9.27013 25.3613 15.4354 24.0645C21.1327 22.8857 24.054 22.6106 27.6208 22.2962C13.3212 25.3613 10.2708 27.3653 2.65288 29.2908C-2.12443 30.509 0.667715 34.0064 2.41079 33.6527C2.42693 33.6527 24.6511 29.2515 26.7493 29.4873C26.9429 29.5266 24.8287 30.2339 22.0365 31.0591C14.2411 33.4169 15.7421 37.3465 21.5846 35.5388C41.2426 29.448 59.7385 27.5617 73.9897 30.1946C78.4927 31.0198 78.993 31.0198 78.993 29.9981C78.993 28.1905 77.7664 26.8152 75.8458 26.5401C72.8438 26.0686 61.2879 24.7325 56.0587 24.3395C55.6552 24.3002 55.8489 23.5537 56.2039 23.4751C58.3344 22.9643 75.2486 23.3571 81.8981 23.9072C86.7884 24.3002 87.1435 24.261 86.966 23.0428Z" fill="#BFD838" />
    <path d="M14.968 9.248V19.616C14.968 20.752 15.264 21.624 15.856 22.232C16.448 22.824 17.28 23.12 18.352 23.12C19.44 23.12 20.28 22.824 20.872 22.232C21.464 21.624 21.76 20.752 21.76 19.616V9.248H25.144V19.592C25.144 21.016 24.832 22.224 24.208 23.216C23.6 24.192 22.776 24.928 21.736 25.424C20.712 25.92 19.568 26.168 18.304 26.168C17.056 26.168 15.92 25.92 14.896 25.424C13.888 24.928 13.088 24.192 12.496 23.216C11.904 22.224 11.608 21.016 11.608 19.592V9.248H14.968ZM38.4224 26L34.7984 20.36L31.5104 26H27.7184L32.9984 17.552L27.6464 9.248H31.5104L35.1344 14.864L38.3984 9.248H42.1904L36.9344 17.672L42.2864 26H38.4224ZM53.8435 3.272L47.3635 30.344H44.0755L50.5555 3.272H53.8435ZM59.8274 9.248V19.616C59.8274 20.752 60.1234 21.624 60.7154 22.232C61.3074 22.824 62.1394 23.12 63.2114 23.12C64.2994 23.12 65.1394 22.824 65.7314 22.232C66.3234 21.624 66.6194 20.752 66.6194 19.616V9.248H70.0034V19.592C70.0034 21.016 69.6914 22.224 69.0674 23.216C68.4594 24.192 67.6354 24.928 66.5954 25.424C65.5714 25.92 64.4274 26.168 63.1634 26.168C61.9154 26.168 60.7794 25.92 59.7554 25.424C58.7474 24.928 57.9474 24.192 57.3554 23.216C56.7634 22.224 56.4674 21.016 56.4674 19.592V9.248H59.8274ZM76.6098 9.248V26H73.2498V9.248H76.6098Z" fill="#2D2D2D" />
</svg>